<?xml version="1.0" encoding="utf-8"?>
<!-- Generator: Adobe Illustrator 24.3.0, SVG Export Plug-In . SVG Version: 6.00 Build 0)  -->
<svg version="1.1" id="livetype" xmlns="http://www.w3.org/2000/svg" xmlns:xlink="http://www.w3.org/1999/xlink" x="0px" y="0px"
	 viewBox="0 0 119.7 40" style="enable-background:new 0 0 119.7 40;" xml:space="preserve">
<style type="text/css">
	.st0{fill:#A6A6A6;}
	.st1{fill:#FFFFFF;}
</style>
<g>
	<g>
		<g>
			<path class="st0" d="M110.4-0.1H9.6c-0.4,0-0.7,0-1.1,0c-0.3,0-0.6,0-0.9,0C6.9,0,6.2,0,5.5,0.1C4.9,0.2,4.2,0.5,3.6,0.8
				C3,1.1,2.5,1.5,2,1.9C1.5,2.4,1.1,3,0.8,3.6C0.5,4.2,0.3,4.8,0.2,5.5C0.1,6.1,0,6.8,0,7.5c0,0.3,0,0.6,0,0.9v23.2
				c0,0.3,0,0.6,0,0.9c0,0.7,0.1,1.3,0.2,2c0.1,0.7,0.3,1.3,0.6,1.9C1.1,37,1.5,37.6,2,38.1c0.5,0.5,1,0.9,1.6,1.2
				c0.6,0.3,1.2,0.5,1.9,0.6C6.2,40,6.9,40,7.5,40c0.3,0,0.6,0,0.9,0c0.4,0,0.7,0,1.1,0h100.9c0.4,0,0.7,0,1.1,0c0.3,0,0.6,0,0.9,0
				c0.7,0,1.3-0.1,2-0.2c0.7-0.1,1.3-0.3,1.9-0.6c0.6-0.3,1.1-0.7,1.6-1.2c0.5-0.5,0.9-1,1.2-1.6c0.3-0.6,0.5-1.2,0.6-1.9
				c0.1-0.7,0.2-1.3,0.2-2c0-0.3,0-0.6,0-0.9c0-0.4,0-0.7,0-1.1v-21c0-0.4,0-0.7,0-1.1c0-0.3,0-0.6,0-0.9c0-0.7-0.1-1.3-0.2-2
				c-0.1-0.7-0.3-1.3-0.6-1.9c-0.6-1.2-1.6-2.2-2.8-2.8c-0.6-0.3-1.2-0.5-1.9-0.6c-0.7-0.1-1.3-0.2-2-0.2c-0.3,0-0.6,0-0.9,0
				C111.2-0.1,110.8-0.1,110.4-0.1L110.4-0.1z"/>
			<path d="M8.5,39.2c-0.3,0-0.6,0-0.9,0c-0.6,0-1.3-0.1-1.9-0.2c-0.6-0.1-1.1-0.3-1.7-0.5c-0.5-0.3-1-0.6-1.4-1
				c-0.4-0.4-0.8-0.9-1-1.4c-0.3-0.5-0.4-1.1-0.5-1.7c-0.1-0.6-0.2-1.3-0.2-1.9c0-0.2,0-0.9,0-0.9V8.4c0,0,0-0.7,0-0.9
				c0-0.6,0.1-1.3,0.2-1.9C1.2,5.1,1.3,4.5,1.6,4c0.3-0.5,0.6-1,1-1.4C3,2.2,3.5,1.8,4,1.5C4.5,1.3,5.1,1.1,5.7,1
				c0.6-0.1,1.3-0.2,1.9-0.2l0.9,0h103.1l0.9,0c0.6,0,1.2,0.1,1.9,0.2c0.6,0.1,1.1,0.3,1.7,0.5c1,0.5,1.9,1.4,2.4,2.4
				c0.3,0.5,0.4,1.1,0.5,1.7c0.1,0.6,0.2,1.3,0.2,1.9c0,0.3,0,0.6,0,0.9c0,0.4,0,0.7,0,1.1v21c0,0.4,0,0.7,0,1.1c0,0.3,0,0.6,0,0.9
				c0,0.6-0.1,1.2-0.2,1.9c-0.1,0.6-0.3,1.1-0.5,1.7c-0.3,0.5-0.6,1-1,1.4c-0.4,0.4-0.9,0.8-1.4,1c-0.5,0.3-1.1,0.5-1.7,0.6
				c-0.6,0.1-1.2,0.2-1.9,0.2c-0.3,0-0.6,0-0.9,0l-1.1,0L8.5,39.2z"/>
		</g>
		<g id="_Group_">
			<g id="_Group_2">
				<g id="_Group_3">
					<path id="_Path_" class="st1" d="M24.8,20.3c0-1.7,0.9-3.3,2.4-4.2c-0.9-1.3-2.4-2.1-4-2.2c-1.7-0.2-3.3,1-4.2,1
						c-0.9,0-2.2-1-3.6-1c-1.9,0.1-3.6,1.1-4.5,2.7c-1.9,3.4-0.5,8.3,1.4,11c0.9,1.3,2,2.8,3.4,2.8c1.4-0.1,1.9-0.9,3.6-0.9
						c1.7,0,2.2,0.9,3.6,0.9c1.5,0,2.4-1.3,3.3-2.7c0.7-0.9,1.2-2,1.5-3.1C26,24,24.8,22.2,24.8,20.3z"/>
					<path id="_Path_2" class="st1" d="M22.1,12.2c0.8-1,1.2-2.2,1.1-3.5C22,8.8,20.8,9.4,20,10.4c-0.8,0.9-1.2,2.1-1.1,3.4
						C20.1,13.7,21.3,13.2,22.1,12.2z"/>
				</g>
			</g>
			<g>
				<path class="st1" d="M42.4,27.2h-4.7l-1.1,3.4h-2L39,18.1h2.1l4.5,12.5h-2L42.4,27.2z M38.2,25.6h3.8l-1.9-5.5H40L38.2,25.6z"/>
				<path class="st1" d="M55.3,26c0,2.8-1.5,4.6-3.8,4.6c-1.2,0.1-2.3-0.6-2.9-1.6h0v4.5h-1.9V21.4h1.8V23h0c0.6-1,1.7-1.6,2.9-1.6
					C53.8,21.4,55.3,23.2,55.3,26z M53.4,26c0-1.8-0.9-3-2.4-3c-1.4,0-2.4,1.2-2.4,3c0,1.8,1,3.1,2.4,3.1C52.4,29,53.4,27.8,53.4,26
					z"/>
				<path class="st1" d="M65.3,26c0,2.8-1.5,4.6-3.8,4.6c-1.2,0.1-2.3-0.6-2.9-1.6h0v4.5h-1.9V21.4h1.8V23h0c0.6-1,1.7-1.6,2.9-1.6
					C63.8,21.4,65.3,23.2,65.3,26z M63.4,26c0-1.8-0.9-3-2.4-3c-1.4,0-2.4,1.2-2.4,3c0,1.8,1,3.1,2.4,3.1C62.4,29,63.4,27.8,63.4,26
					L63.4,26z"/>
				<path class="st1" d="M71.9,27.1c0.1,1.2,1.3,2,3,2c1.6,0,2.7-0.8,2.7-1.9c0-1-0.7-1.5-2.3-1.9l-1.6-0.4
					c-2.3-0.6-3.3-1.6-3.3-3.4c0-2.1,1.9-3.6,4.5-3.6c2.6,0,4.4,1.5,4.5,3.6h-1.9c-0.1-1.2-1.1-2-2.6-2s-2.5,0.8-2.5,1.9
					c0,0.9,0.7,1.4,2.3,1.8l1.4,0.3c2.6,0.6,3.6,1.6,3.6,3.5c0,2.3-1.9,3.8-4.8,3.8c-2.8,0-4.6-1.4-4.7-3.7L71.9,27.1z"/>
				<path class="st1" d="M83.6,19.3v2.1h1.7v1.5h-1.7v5c0,0.8,0.3,1.1,1.1,1.1c0.2,0,0.4,0,0.6,0v1.5c-0.3,0.1-0.7,0.1-1,0.1
					c-1.8,0-2.6-0.7-2.6-2.5v-5.2h-1.3v-1.5h1.3v-2.1H83.6z"/>
				<path class="st1" d="M86.3,26c0-2.9,1.7-4.7,4.3-4.7c2.6,0,4.3,1.8,4.3,4.7c0,2.9-1.7,4.7-4.3,4.7C88,30.6,86.3,28.9,86.3,26z
					 M93,26c0-2-0.9-3.1-2.4-3.1S88.2,24,88.2,26c0,2,0.9,3.1,2.4,3.1S93,28,93,26L93,26z"/>
				<path class="st1" d="M96.5,21.4h1.8V23h0c0.2-1,1.2-1.7,2.2-1.6c0.2,0,0.4,0,0.6,0.1v1.7c-0.3-0.1-0.6-0.1-0.8-0.1
					c-1,0-1.9,0.8-2,1.8c0,0.1,0,0.2,0,0.3v5.4h-1.9L96.5,21.4z"/>
				<path class="st1" d="M109.7,27.9c-0.3,1.6-1.9,2.8-3.9,2.8c-2.6,0-4.3-1.8-4.3-4.6c0-2.8,1.6-4.7,4.2-4.7c2.5,0,4.1,1.7,4.1,4.5
					v0.6h-6.4v0.1c-0.1,1.3,0.8,2.4,2.1,2.6c0.1,0,0.2,0,0.3,0c0.9,0.1,1.8-0.4,2.1-1.3L109.7,27.9z M103.4,25.1h4.5
					c0.1-1.2-0.9-2.2-2.1-2.3c-0.1,0-0.1,0-0.2,0C104.4,22.8,103.4,23.9,103.4,25.1C103.4,25.1,103.4,25.1,103.4,25.1z"/>
			</g>
		</g>
	</g>
	<g id="_Group_4">
		<g>
			<path class="st1" d="M37.9,8.7c1.5-0.1,2.7,1,2.8,2.5c0,0.2,0,0.3,0,0.5c0,1.9-1,3-2.8,3h-2.2v-6H37.9z M36.7,13.8h1.1
				c1,0.1,1.9-0.7,2-1.8c0-0.1,0-0.3,0-0.4c0.1-1-0.6-2-1.6-2.1c-0.1,0-0.2,0-0.4,0h-1.1V13.8z"/>
			<path class="st1" d="M41.8,12.4c-0.1-1.2,0.7-2.2,1.9-2.3c1.2-0.1,2.2,0.7,2.3,1.9c0,0.1,0,0.3,0,0.4c0.1,1.2-0.7,2.2-1.9,2.3
				c-1.2,0.1-2.2-0.7-2.3-1.9C41.8,12.7,41.8,12.6,41.8,12.4z M45.1,12.4c0-1-0.4-1.6-1.2-1.6c-0.8,0-1.2,0.6-1.2,1.6
				c0,1,0.4,1.6,1.2,1.6C44.7,14,45.1,13.4,45.1,12.4L45.1,12.4z"/>
			<path class="st1" d="M51.7,14.7h-0.9l-0.9-3.3h-0.1l-0.9,3.3h-0.9l-1.2-4.5h0.9l0.8,3.4h0.1l0.9-3.4h0.9l0.9,3.4h0.1l0.8-3.4H53
				L51.7,14.7z"/>
			<path class="st1" d="M54,10.2h0.9v0.7h0.1c0.2-0.5,0.8-0.9,1.3-0.8c0.8-0.1,1.5,0.5,1.6,1.4c0,0.1,0,0.2,0,0.3v2.9h-0.9V12
				c0-0.7-0.3-1.1-1-1.1c-0.6,0-1.1,0.4-1.1,1c0,0.1,0,0.1,0,0.2v2.6H54L54,10.2z"/>
			<path class="st1" d="M59.3,8.4h0.9v6.3h-0.9V8.4z"/>
			<path class="st1" d="M61.4,12.4c-0.1-1.2,0.7-2.2,1.9-2.3c1.2-0.1,2.2,0.7,2.3,1.9c0,0.1,0,0.3,0,0.4c0.1,1.2-0.7,2.2-1.9,2.3
				c-1.2,0.1-2.2-0.7-2.3-1.9C61.4,12.7,61.4,12.6,61.4,12.4z M64.7,12.4c0-1-0.4-1.6-1.2-1.6c-0.8,0-1.2,0.6-1.2,1.6
				c0,1,0.4,1.6,1.2,1.6C64.3,14,64.7,13.4,64.7,12.4z"/>
			<path class="st1" d="M66.6,13.4c0-0.8,0.6-1.3,1.7-1.3l1.2-0.1v-0.4c0-0.5-0.3-0.7-0.9-0.7c-0.5,0-0.8,0.2-0.9,0.5h-0.9
				c0.1-0.8,0.8-1.3,1.8-1.3c1.1,0,1.8,0.6,1.8,1.5v3.1h-0.9V14h-0.1c-0.3,0.5-0.8,0.7-1.4,0.7c-0.7,0.1-1.4-0.5-1.5-1.2
				C66.6,13.5,66.6,13.5,66.6,13.4z M69.5,13v-0.4l-1.1,0.1c-0.6,0-0.9,0.3-0.9,0.7c0,0.4,0.4,0.6,0.8,0.6
				C68.9,14.1,69.4,13.6,69.5,13C69.5,13,69.5,13,69.5,13z"/>
			<path class="st1" d="M71.5,12.4c0-1.4,0.7-2.3,1.9-2.3c0.6,0,1.1,0.3,1.4,0.8h0.1V8.4h0.9v6.3h-0.9V14h-0.1
				c-0.3,0.5-0.8,0.8-1.4,0.8C72.3,14.8,71.5,13.9,71.5,12.4z M72.5,12.4c0,1,0.5,1.5,1.2,1.5c0.8,0,1.2-0.6,1.2-1.5
				c0-0.9-0.5-1.5-1.2-1.5C72.9,10.9,72.5,11.5,72.5,12.4L72.5,12.4z"/>
			<path class="st1" d="M79.5,12.4c-0.1-1.2,0.7-2.2,1.9-2.3s2.2,0.7,2.3,1.9c0,0.1,0,0.3,0,0.4c0.1,1.2-0.7,2.2-1.9,2.3
				c-1.2,0.1-2.2-0.7-2.3-1.9C79.4,12.7,79.4,12.6,79.5,12.4z M82.8,12.4c0-1-0.4-1.6-1.2-1.6c-0.8,0-1.2,0.6-1.2,1.6
				c0,1,0.4,1.6,1.2,1.6C82.4,14,82.8,13.4,82.8,12.4z"/>
			<path class="st1" d="M84.9,10.2h0.9v0.7h0.1c0.2-0.5,0.8-0.9,1.3-0.8c0.8-0.1,1.5,0.5,1.6,1.4c0,0.1,0,0.2,0,0.3v2.9h-0.9V12
				c0-0.7-0.3-1.1-1-1.1c-0.6,0-1.1,0.4-1.1,1c0,0.1,0,0.1,0,0.2v2.6h-0.9V10.2z"/>
			<path class="st1" d="M93.8,9v1.1h1v0.8h-1v2.3c0,0.5,0.2,0.7,0.6,0.7c0.1,0,0.2,0,0.3,0v0.7c-0.2,0-0.3,0-0.5,0
				c-1,0-1.4-0.3-1.4-1.2v-2.6h-0.7v-0.8h0.7V9H93.8z"/>
			<path class="st1" d="M96,8.4h0.9v2.5h0.1c0.2-0.5,0.8-0.9,1.4-0.8c0.8,0,1.5,0.6,1.6,1.4c0,0.1,0,0.2,0,0.3v2.9H99V12
				c0-0.7-0.3-1.1-1-1.1c-0.6,0-1.1,0.4-1.1,1c0,0.1,0,0.1,0,0.2v2.6H96L96,8.4z"/>
			<path class="st1" d="M105.1,13.5c-0.2,0.9-1.1,1.4-2,1.3c-1.1,0-2.1-0.9-2.1-2c0-0.1,0-0.2,0-0.3c-0.2-1.1,0.6-2.2,1.8-2.3
				c0.1,0,0.2,0,0.3,0c1.3,0,2,0.9,2,2.3v0.3h-3.2v0c-0.1,0.7,0.4,1.2,1.1,1.3c0,0,0.1,0,0.1,0c0.4,0.1,0.9-0.2,1.1-0.5L105.1,13.5z
				 M101.9,12h2.3c0-0.6-0.4-1.1-1-1.2c0,0-0.1,0-0.1,0C102.5,10.8,101.9,11.3,101.9,12C101.9,12,101.9,12,101.9,12L101.9,12z"/>
		</g>
	</g>
</g>
</svg>
